<svg class=" " viewBox="0 0 1600 800"><path d="M283.451,796C283.451,796,233.882,782.49,209.045,782.478C184.143,782.466,134.235,796,134.235,796" stroke="#71717a" stroke-width="2" fill="none" stroke-linecap="round" stroke-miterlimit="4"></path><path d="M376.855,796C376.855,796,338.04,771.491,313.568,764.168C283.742,755.244,243.898,752.257,209.045,752.047C174.216,751.838,130.83,757.315,104.523,762.897C87.982,766.407,76.319,770.158,65.02,775.758C55.389,780.53,40.201,792.936,40.201,792.936" stroke="#71717a" stroke-width="2" fill="none" stroke-linecap="round" stroke-miterlimit="4"></path><path d="M438.66,796C438.66,796,421.095,776.611,410.05,769.327C398.344,761.607,387.028,756.78,369.849,751.583C342.151,743.202,296.784,734.957,257.286,732.035C214.064,728.838,163.54,729.235,120.516,735.354C80.842,740.996,8.04,765.066,8.04,765.066" stroke="#71717a" stroke-width="2" fill="none" stroke-linecap="round" stroke-miterlimit="4"></path><path d="M490.881,796C490.881,796,476.509,775.654,467.188,767.677C457.667,759.528,449.047,754.057,434.171,747.815C408.329,736.972,363.286,724.726,321.608,718.715C271.368,711.47,206.732,709.827,152.764,713.058C102.518,716.066,8.04,735.389,8.04,735.389" stroke="#71717a" stroke-width="2" fill="none" stroke-linecap="round" stroke-miterlimit="4"></path><path d="M572.083,307.071C572.369,312.456,575.529,318.672,581.46,323.232C592.436,331.673,622.779,338.85,643.216,340.055C662.87,341.213,687.394,337.198,701.766,331.313C711.555,327.304,719.499,321.362,723.973,315.152C727.488,310.272,729.842,304.734,729.095,298.99C728.123,291.514,721.821,280.655,713.708,274.747C703.229,267.118,683.04,263.672,667.337,262.736C651.506,261.792,634.006,264.275,619.095,269.259C604.588,274.108,586.284,283.688,578.894,291.787C574.441,296.668,571.811,301.975,572.083,307.071" stroke="#71717a" stroke-width="2" fill="none" stroke-linecap="round" stroke-miterlimit="4"></path><path d="M1043.033,452.525C1045.714,459.249,1052.215,463.704,1061.452,468.687C1079.309,478.322,1117.708,488.937,1149.749,493.062C1186.515,497.795,1238.823,496.088,1270.352,491.461C1291.354,488.38,1310.004,483.674,1321.815,476.768C1329.554,472.243,1336.546,466.494,1338.15,460.606C1339.519,455.583,1337.148,449.334,1333.872,444.444C1329.728,438.26,1322.944,433.421,1312.56,428.283C1292.262,418.239,1247.705,405.348,1214.07,401.004C1180.053,396.61,1135.56,398.926,1109.548,402.396C1093.654,404.516,1082.918,407.341,1071.755,412.121C1061.763,416.4,1049.8,421.238,1045.226,428.655C1041.221,435.15,1040.381,445.876,1043.033,452.525" stroke="#71717a" stroke-width="2" fill="none" stroke-linecap="round" stroke-miterlimit="4"></path><path d="M538.297,796C538.297,796,524.467,773.746,514.573,764.288C503.611,753.809,492,745.178,474.372,736.948C447.025,724.18,404.41,712.167,361.809,705.019C308.209,696.025,237.068,693.203,176.884,694.634C119.267,696.003,8.04,712.193,8.04,712.193" stroke="#71717a" stroke-width="2" fill="none" stroke-linecap="round" stroke-miterlimit="4"></path><path d="M482.426,315.152C482.046,320.806,482.494,325.784,486.318,331.313C493.432,341.597,513.142,354.959,533.889,363.636C564.822,376.574,612.338,383.226,659.296,388.464C718.189,395.033,831.002,387.476,860.302,393.835C868.936,395.71,869.441,396.206,876.382,400.648C894.048,411.955,928.725,458.377,960.097,476.768C990.563,494.628,1025.642,502.939,1061.307,510.591C1099.317,518.746,1141.666,521.521,1181.91,522.715C1222.069,523.906,1266.54,522.268,1302.513,517.783C1332.191,514.083,1362.748,508.07,1382.915,500.88C1396.053,496.196,1406.405,491.176,1413.882,484.848C1419.573,480.032,1424.814,474.953,1426.01,468.687C1427.343,461.699,1424.382,451.767,1419.387,444.444C1413.04,435.139,1399.801,427.568,1386.843,420.202C1370.671,411.008,1349.871,403.096,1328.468,395.96C1303.667,387.69,1276.481,380.297,1246.231,374.953C1210.083,368.568,1170.575,363.919,1125.628,362.902C1068.873,361.616,972.952,374.451,932.663,373.394C914.235,372.91,902.86,374.294,892.462,369.084C883.581,364.634,879.582,358.017,872.39,347.475C858.65,327.336,841.981,270.748,825.686,250.505C816.039,238.521,806.611,232.919,795.98,227.254C785.913,221.889,776.878,219.181,763.819,216.767C744.707,213.234,716.702,211.634,691.457,213.12C663.368,214.773,630.548,220.072,603.015,228.111C577.306,235.617,550.751,246.121,530.983,258.586C514.535,268.957,498.274,283.258,490.452,294.492C485.448,301.679,482.865,308.622,482.426,315.152" stroke="#71717a" stroke-width="2" fill="none" stroke-linecap="round" stroke-miterlimit="4"></path><path d="M800.437,4C800.437,4,880.568,23.099,916.583,22.299C948.137,21.597,1005.025,4.304,1005.025,4.304" stroke="#71717a" stroke-width="2" fill="none" stroke-linecap="round" stroke-miterlimit="4"></path><path d="M583.17,796C583.17,796,567.359,770.289,557.238,759.596C547.161,748.949,535.656,739.99,522.613,731.942C508.333,723.13,491.915,715.939,474.372,709.714C454.759,702.755,437.484,697.854,410.05,693.276C363.204,685.458,282.713,678.213,217.085,677.706C148.817,677.179,8.04,691.33,8.04,691.33" stroke="#71717a" stroke-width="2" fill="none" stroke-linecap="round" stroke-miterlimit="4"></path><path d="M420.643,323.232C420.995,330.917,423.63,339.793,429.975,347.475C439.76,359.322,462.365,371.246,482.412,380.165C505.737,390.543,529.513,395.26,562.814,403.265C615.947,416.038,707.445,424.887,771.859,443.916C830.194,461.148,886.505,494.229,933.901,509.091C969.352,520.207,993.031,525.446,1029.146,530.92C1075.541,537.952,1135.675,542.473,1189.95,543.091C1245.525,543.724,1310.394,541.553,1358.794,534.172C1396.28,528.456,1435.429,518.432,1457.068,509.091C1468.871,503.996,1475.864,499.831,1482.552,492.929C1489.013,486.262,1496.089,476.957,1496.877,468.687C1497.629,460.779,1492.804,451.232,1488.196,444.444C1483.705,437.829,1479.223,434.246,1469.836,428.283C1448.905,414.986,1397.346,393.177,1358.321,379.798C1317.615,365.843,1277.074,356.096,1230.151,347.017C1174.431,336.237,1089.61,331.174,1045.226,322.494C1019.787,317.519,1003.498,315.445,985.918,307.071C969.335,299.172,955.828,289.446,942.012,274.747C924.121,255.713,912.458,215.045,892.462,197.902C876.047,183.829,858.768,177.433,836.181,172.81C805.651,166.562,762.752,170.306,723.618,174.569C680.055,179.314,628.744,188.897,586.935,202.472C549.006,214.787,510.636,230.865,482.412,249.971C459.161,265.712,434.839,289.381,426.131,303.857C421.704,311.217,420.334,316.467,420.643,323.232" stroke="#71717a" stroke-width="2" fill="none" stroke-linecap="round" stroke-miterlimit="4"></path><path d="M711.727,4C711.727,4,798.748,41.837,836.181,52.367C865.46,60.603,889.155,66.934,916.583,66.81C945.373,66.68,977.944,60.747,1005.025,50.097C1031.426,39.715,1077.387,4.469,1077.387,4.469" stroke="#71717a" stroke-width="2" fill="none" stroke-linecap="round" stroke-miterlimit="4"></path><path d="M626.856,796C626.856,796,606.936,764.536,594.973,751.515C583.563,739.096,571.301,728.434,557.099,719.192C542.032,709.387,524.186,701.483,506.571,694.949C488.601,688.284,475.226,684.209,450.251,679.786C402.88,671.395,312.844,663.045,241.206,661.424C165.659,659.713,8.04,671.302,8.04,671.302" stroke="#71717a" stroke-width="2" fill="none" stroke-linecap="round" stroke-miterlimit="4"></path><path d="M1127.794,4C1127.794,4,1039.258,89.082,1020.379,113.131C1012.234,123.507,1008.528,126.809,1005.395,137.374C1000.675,153.287,1000.433,182.335,1003.907,202.02C1007.023,219.682,1013.63,237.997,1022.842,250.505C1030.802,261.313,1042.478,268.369,1053.218,274.747C1063.402,280.796,1069.263,282.893,1085.427,288.303C1129.971,303.213,1266.954,330.32,1342.714,353.354C1404.216,372.053,1469.712,390.864,1507.445,412.121C1530.269,424.979,1550.359,439.272,1557.063,452.525C1561.192,460.688,1560.492,469.052,1558.258,476.768C1555.79,485.294,1549.944,493.318,1541.214,501.01C1527.803,512.825,1503.835,525.273,1479.397,533.701C1448.144,544.48,1408.755,549.413,1366.834,553.927C1314.682,559.543,1248.899,560.951,1189.95,560.432C1130.976,559.913,1067.145,557.342,1013.065,550.804C966.577,545.184,929.685,538.942,884.422,526.564C831.408,512.067,777.858,484.283,715.578,465.384C641.165,442.803,524.256,423.782,466.649,404.04C434.57,393.047,411.054,383.411,394.013,371.717C382.815,364.033,374.104,357.081,369.708,347.475C365.437,338.141,364.522,325.439,367.389,315.152C370.558,303.782,380.762,293.003,390.235,282.828C400.985,271.281,413.105,261.698,429.663,250.505C453.543,234.363,484.807,215.866,522.613,199.466C576.006,176.303,681.411,153.634,723.618,133.641C744.771,123.622,762.864,114.732,768.394,105.051C771.446,99.709,770.872,94.441,768.969,88.889C766.311,81.13,759.203,73.496,748.724,64.646C728.259,47.363,644.64,4,644.64,4" stroke="#71717a" stroke-width="2" fill="none" stroke-linecap="round" stroke-miterlimit="4"></path><path d="M670.459,796C670.459,796,641.231,752.814,627.136,736.934C616.208,724.622,607.436,715.842,594.975,706.867C581.064,696.848,563.832,687.751,546.734,680.727C529.061,673.468,515.456,669.103,490.452,664.364C443.132,655.393,355.834,647.731,281.407,645.132C196.465,642.166,8.04,651.128,8.04,651.128" stroke="#71717a" stroke-width="2" fill="none" stroke-linecap="round" stroke-miterlimit="4"></path><path d="M1596,506.792C1596,506.792,1547.99,539.242,1519.598,549.477C1488.309,560.756,1457.017,564.248,1415.075,568.766C1352.939,575.458,1258.87,576.837,1181.91,576.256C1106.398,575.685,1022.427,573.064,957.574,565.657C907.25,559.909,871.237,554.081,824.531,541.414C769.989,526.622,713.739,498.149,651.256,478.275C579.726,455.524,474.438,434.802,418.09,414.629C384.634,402.651,358.867,391.888,340.326,379.798C328.247,371.921,318.967,364.52,313.486,355.556C308.921,348.088,306.429,339.296,307.005,331.313C307.596,323.129,311.952,315.215,317.406,307.071C324.548,296.405,334.794,286.525,349.055,274.747C372.002,255.796,407.991,231.223,446.727,210.101C497.468,182.432,591.532,152.19,630.754,129.293C651.065,117.435,667.575,107.085,673.891,96.97C677.38,91.381,677.933,86.549,676.974,80.808C675.725,73.328,670.979,65.223,663.109,56.566C648.894,40.926,588.67,4,588.67,4" stroke="#71717a" stroke-width="2" fill="none" stroke-linecap="round" stroke-miterlimit="4"></path><path d="M1596,423.621C1596,423.621,1552.125,401.679,1515.677,387.879C1442.998,360.361,1252.695,312.714,1182.248,282.828C1147.571,268.117,1123.274,258.841,1107.8,242.424C1096.569,230.509,1091.353,217.004,1088.871,202.02C1086.067,185.098,1090.827,163.329,1095.101,145.455C1099.179,128.401,1104.469,115.275,1113.336,96.97C1126.172,70.471,1169.375,4,1169.375,4" stroke="#71717a" stroke-width="2" fill="none" stroke-linecap="round" stroke-miterlimit="4"></path><path d="M714.847,796C714.847,796,658.953,713.499,635.176,691.005C620.753,677.36,609.502,671.105,594.975,663.874C580.079,656.46,568.545,652.094,546.734,647.349C504.202,638.098,427.504,631.776,353.769,628.309C255.31,623.681,8.04,629.83,8.04,629.83" stroke="#71717a" stroke-width="2" fill="none" stroke-linecap="round" stroke-miterlimit="4"></path><path d="M1595.722,549.495C1595.722,549.495,1542.541,571.021,1511.558,577.525C1475.355,585.124,1441.091,586.283,1390.955,588.692C1308.37,592.659,1160.644,592.657,1062.329,589.899C982.162,587.65,900.569,584.488,844.221,576.848C807.972,571.932,788.987,568.293,755.779,558.017C710.108,543.885,656.162,513.64,597.615,492.929C527.393,468.089,424.42,446.681,361.809,422.661C318.296,405.968,272.887,385.678,254.442,371.717C246.603,365.785,242.976,362.013,240.322,355.556C237.499,348.686,235.913,339.779,238.822,331.313C243.157,318.699,258.622,304.891,274.535,290.909C297.81,270.459,332.185,248.828,370.089,226.263C421.269,195.793,516.974,154.288,556.735,129.293C576.86,116.641,592.194,106.913,599.852,96.97C604.208,91.313,606.204,86.78,606.403,80.808C606.643,73.583,604.112,65.349,598.408,56.566C588.425,41.194,540.53,4,540.53,4" stroke="#71717a" stroke-width="2" fill="none" stroke-linecap="round" stroke-miterlimit="4"></path><path d="M1596,388.484C1596,388.484,1366.616,322.777,1300.133,298.99C1265.413,286.567,1244.419,278.721,1222.27,266.667C1204.063,256.757,1186.585,247.452,1175.362,234.343C1165.404,222.713,1159,208.967,1155.911,193.939C1152.441,177.053,1155.584,156.716,1158.362,137.374C1161.375,116.398,1166.686,94.227,1174.321,72.727C1182.476,49.762,1206.711,4,1206.711,4" stroke="#71717a" stroke-width="2" fill="none" stroke-linecap="round" stroke-miterlimit="4"></path><path d="M761.133,796C761.133,796,723.782,746.547,709.224,719.192C694.419,691.374,675.862,648.939,673.322,630.303C672.215,622.178,669.514,617.481,675.377,612.197C713.732,577.626,1328.962,610.758,1455.276,604.938C1495.902,603.065,1510.955,602.376,1535.678,598.266C1557.387,594.657,1596,583.077,1596,583.077" stroke="#71717a" stroke-width="2" fill="none" stroke-linecap="round" stroke-miterlimit="4"></path><path d="M499.397,4C499.397,4,541.094,48.233,545.432,64.646C547.891,73.949,545.14,81.962,542.202,88.889C539.506,95.248,535.608,99.254,529.408,105.051C519.095,114.693,505.807,123.009,482.408,137.374C421.335,174.867,184.599,293.826,141.16,323.232C130.066,330.742,125.593,333.329,121.635,339.394C118.413,344.332,115.854,350.476,117.042,355.556C118.396,361.343,124.477,366.532,131.692,371.717C143.715,380.358,160.153,385.663,187.187,395.96C255.803,422.092,488.018,483.227,558.002,517.172C588.259,531.847,604.686,544.773,618.706,557.576C627.865,565.94,634.658,574.127,638.226,581.818C640.821,587.411,644.383,593.942,641.347,597.98C634.7,606.818,600.913,603.359,562.814,605.107C461.76,609.746,8.04,605.786,8.04,605.786" stroke="#71717a" stroke-width="2" fill="none" stroke-linecap="round" stroke-miterlimit="4"></path><path d="M1596,364.014C1596,364.014,1415.563,319.145,1358.794,299.367C1325.788,287.868,1304.357,278.688,1282.391,266.667C1264.122,256.668,1247.138,247.251,1234.853,234.343C1223.705,222.632,1215.075,209.202,1210.205,193.939C1204.874,177.234,1205.678,156.83,1206.237,137.374C1206.836,116.515,1208.976,94.259,1214.522,72.727C1220.428,49.798,1241.713,4,1241.713,4" stroke="#71717a" stroke-width="2" fill="none" stroke-linecap="round" stroke-miterlimit="4"></path><path d="M4,420.928C4,420.928,126.515,431.906,176.884,439.632C216.462,445.703,245.701,451.206,282.173,460.606C322.817,471.082,377.842,487.865,409.231,501.01C428.829,509.217,445.242,516.85,455.203,525.253C461.44,530.513,467.367,535.942,467.606,541.414C467.838,546.721,462.192,553.581,457.31,557.576C452.024,561.901,445.836,563.211,436.355,565.657C418.089,570.368,390.939,574.592,353.769,577.03C277.632,582.024,4,574.981,4,574.981" stroke="#71717a" stroke-width="2" fill="none" stroke-linecap="round" stroke-miterlimit="4"></path><path d="M462.459,4C462.459,4,483.15,28.042,488.504,40.404C493.098,51.011,496.234,62.926,494.936,72.727C493.759,81.607,489.269,88.983,482.93,96.97C474.239,107.92,461.482,117.177,443.675,129.293C412.292,150.645,347.861,184.629,305.528,205.845C270.877,223.212,240.115,237.729,209.045,249.3C181.379,259.604,158.411,266.641,128.643,273.28C92.755,281.285,8.04,291.389,8.04,291.389" stroke="#71717a" stroke-width="2" fill="none" stroke-linecap="round" stroke-miterlimit="4"></path><path d="M810.401,796C810.401,796,779.78,768.482,771.16,751.515C762.641,734.748,756.284,710.804,758.67,694.949C760.581,682.25,767.38,671.24,777.009,662.626C788.789,652.087,805.018,646.552,828.141,640.712C871.292,629.813,942.204,626.717,1021.106,623.324C1145.608,617.97,1405.657,629.907,1503.518,625.21C1546.472,623.148,1596,615.945,1596,615.945" stroke="#71717a" stroke-width="2" fill="none" stroke-linecap="round" stroke-miterlimit="4"></path><path d="M1596,343.035C1596,343.035,1529.087,331.842,1495.477,323.407C1460.746,314.691,1422.182,303.055,1390.955,291.197C1364.456,281.134,1339.54,270.654,1319.265,258.586C1302.533,248.627,1287.623,238.945,1276.468,226.263C1266.078,214.45,1258.456,201.509,1253.392,185.859C1247.406,167.359,1246.434,142.041,1246.453,121.212C1246.471,101.727,1248.093,83.54,1252.627,64.646C1257.468,44.475,1275.616,4,1275.616,4" stroke="#71717a" stroke-width="2" fill="none" stroke-linecap="round" stroke-miterlimit="4"></path><path d="M427.889,4C427.889,4,448.185,34.479,450.627,48.485C452.6,59.796,451.069,70.686,446.493,80.808C441.233,92.445,429.572,103.061,418.034,113.131C404.596,124.86,388.692,134.102,369.372,145.455C343.101,160.893,305.133,180.95,273.367,194.979C243.681,208.089,214.021,219.509,184.925,227.814C157.79,235.559,132.68,240.454,104.523,244.161C73.96,248.185,8.04,250.077,8.04,250.077" stroke="#71717a" stroke-width="2" fill="none" stroke-linecap="round" stroke-miterlimit="4"></path><path d="M128.643,496.623C147.174,493.497,171.646,493.153,192.965,495.191C214.521,497.252,243.997,501.477,257.258,509.091C264.911,513.485,273.245,520.949,272.052,525.253C270.429,531.108,247.927,534.702,233.166,536.802C214.578,539.446,189.986,538.368,168.844,536.409C147.957,534.474,120.647,532.126,107.058,525.253C98.742,521.047,88.979,513.517,89.982,509.091C91.301,503.274,113.919,499.106,128.643,496.623" stroke="#71717a" stroke-width="2" fill="none" stroke-linecap="round" stroke-miterlimit="4"></path><path d="M864.268,796C864.268,796,826.975,767.439,818.918,751.515C812.46,738.751,809.806,723.185,813.15,711.111C816.528,698.915,826.948,687.555,839.406,678.788C855.931,667.159,882.322,660.572,908.543,654.499C941.153,646.947,979.721,644.326,1021.106,641.229C1071.629,637.449,1121.521,635.571,1189.95,635.82C1296.08,636.207,1596,651.791,1596,651.791" stroke="#71717a" stroke-width="2" fill="none" stroke-linecap="round" stroke-miterlimit="4"></path><path d="M1596,323.5C1596,323.5,1539.89,315.854,1511.558,309.294C1482.024,302.455,1449.849,293.26,1422.355,282.828C1397.441,273.376,1372.46,262.574,1353.132,250.505C1337.272,240.602,1323.628,230.727,1313.117,218.182C1303.163,206.302,1296.008,193.371,1290.862,177.778C1284.742,159.234,1282.374,133.975,1282.141,113.131C1281.923,93.661,1283.944,74.782,1288.489,56.566C1293.019,38.41,1309.318,4,1309.318,4" stroke="#71717a" stroke-width="2" fill="none" stroke-linecap="round" stroke-miterlimit="4"></path><path d="M394.56,4C394.56,4,408.921,28.368,410.926,40.404C412.733,51.259,411.993,62.516,407.929,72.727C403.357,84.214,393.9,94.555,382.577,105.051C367.515,119.013,344.263,132.93,322.141,145.455C297.596,159.35,267.778,173.254,241.206,183.656C216.741,193.233,193.173,200.654,168.844,206.458C144.925,212.164,121.898,215.861,96.482,218.366C68.564,221.118,8.04,221.324,8.04,221.324" stroke="#71717a" stroke-width="2" fill="none" stroke-linecap="round" stroke-miterlimit="4"></path><path d="M924.623,795.846C924.623,795.846,885.465,771.808,876.002,759.596C869.784,751.571,866.938,742.727,866.086,735.354C865.413,729.525,865.514,724.883,868.664,719.192C874.125,709.33,889.305,695.468,905.689,686.869C928.373,674.963,962.791,669.268,996.985,663.656C1039.43,656.69,1091.011,654.225,1141.709,652.58C1197.677,650.765,1262.661,651.332,1318.593,654.619C1369.326,657.601,1416.295,662.689,1463.317,669.999C1508.68,677.052,1596,697.255,1596,697.255" stroke="#71717a" stroke-width="2" fill="none" stroke-linecap="round" stroke-miterlimit="4"></path><path d="M1596,304.48C1596,304.48,1544.538,298.301,1519.598,292.746C1494.962,287.258,1470.026,280.166,1447.236,271.471C1425.636,263.229,1403.503,253.613,1386.024,242.424C1370.945,232.771,1357.554,222.575,1347.319,210.101C1337.542,198.184,1330.495,185.271,1325.29,169.697C1319.089,151.139,1316.065,125.069,1315.794,105.051C1315.559,87.745,1317.302,72.753,1321.58,56.566C1326.204,39.073,1343.68,4,1343.68,4" stroke="#71717a" stroke-width="2" fill="none" stroke-linecap="round" stroke-miterlimit="4"></path><path d="M361.489,4C361.489,4,373.725,28.517,374.54,40.404C375.293,51.39,372.867,62.591,367.74,72.727C361.866,84.339,350.57,95.04,338.857,105.051C325.215,116.708,307.395,127.138,289.447,136.915C269.781,147.628,247.508,157.778,225.126,166.01C202.01,174.512,181.336,181.747,152.764,186.825C113.101,193.875,8.04,197.222,8.04,197.222" stroke="#71717a" stroke-width="2" fill="none" stroke-linecap="round" stroke-miterlimit="4"></path><path d="M996.489,796C996.489,796,965.806,783.956,954.198,775.758C944.262,768.74,933.792,760.429,929.861,751.515C926.557,744.023,926.404,734.143,928.808,727.273C931.068,720.816,935.315,716.275,942.89,711.111C957.8,700.948,990.562,690.005,1021.106,683.221C1061.518,674.245,1116.885,671.154,1165.829,669.492C1216.011,667.789,1269.774,668.96,1318.593,673.574C1364.095,677.873,1411.562,684.452,1449.621,694.949C1480.59,703.491,1506.666,713.013,1531.372,727.273C1555.302,741.085,1596,778.517,1596,778.517" stroke="#71717a" stroke-width="2" fill="none" stroke-linecap="round" stroke-miterlimit="4"></path><path d="M1596,285.222C1596,285.222,1548.615,280.143,1525.324,274.747C1501.699,269.275,1476.05,261.329,1455.276,252.453C1437.359,244.798,1421.104,236.507,1407.272,226.263C1394.673,216.931,1383.463,206.635,1374.874,194.5C1366.301,182.387,1360.098,168.669,1355.762,153.535C1350.893,136.544,1348.395,115.067,1348.848,96.97C1349.268,80.153,1352.134,63.935,1357.25,48.485C1362.399,32.936,1379.733,4,1379.733,4" stroke="#71717a" stroke-width="2" fill="none" stroke-linecap="round" stroke-miterlimit="4"></path><path d="M327.674,4C327.674,4,336.702,22.457,337.553,32.323C338.443,42.634,336.883,54.518,332.221,64.646C326.975,76.041,316.119,86.915,305.528,96.375C294.099,106.582,283.014,114.208,265.327,123.099C236.508,137.585,186.828,157.712,144.724,166.424C101.197,175.431,8.04,175.074,8.04,175.074" stroke="#71717a" stroke-width="2" fill="none" stroke-linecap="round" stroke-miterlimit="4"></path><path d="M1088.034,796C1088.034,796,1045.271,783.163,1030.694,775.758C1020.697,770.68,1012.531,765.744,1007.103,759.596C1002.775,754.693,998.935,748.862,998.767,743.434C998.601,738.086,1001.003,732.261,1005.872,727.273C1014.255,718.683,1035.373,710.63,1053.266,705.047C1074.451,698.438,1099.2,695.539,1125.628,692.896C1157.18,689.74,1196.032,688.583,1230.151,689.444C1262.98,690.272,1296.113,692.616,1326.633,697.514C1354.835,702.04,1384.212,707.847,1407.035,716.749C1425.612,723.995,1444.765,734.537,1454.86,743.434C1460.973,748.821,1464.699,753.887,1466.769,759.596C1468.627,764.723,1469.867,770.558,1467.747,775.758C1464.853,782.854,1445.398,796,1445.398,796" stroke="#71717a" stroke-width="2" fill="none" stroke-linecap="round" stroke-miterlimit="4"></path><path d="M1596,265.034C1596,265.034,1507.625,248.888,1479.397,238.092C1461.916,231.406,1451.3,224.954,1439.196,215.947C1427.203,207.022,1415.719,196.911,1407.035,184.385C1397.758,171.003,1390.23,153.527,1386.176,137.374C1382.234,121.668,1381.105,104.929,1382.569,88.889C1384.056,72.602,1388.851,54.949,1395.278,40.404C1401.258,26.869,1418.909,4,1418.909,4" stroke="#71717a" stroke-width="2" fill="none" stroke-linecap="round" stroke-miterlimit="4"></path><path d="M291.824,4C291.824,4,300.185,22.553,300.307,32.323C300.436,42.724,298.481,53.912,291.495,64.646C280.918,80.9,255.912,99.947,231.917,113.131C203.353,128.827,164.893,140.784,128.643,147.557C90.467,154.691,8.04,153.313,8.04,153.313" stroke="#71717a" stroke-width="2" fill="none" stroke-linecap="round" stroke-miterlimit="4"></path><path d="M1149.749,722.038C1174.412,716.255,1208.839,715.795,1238.191,717.945C1267.802,720.114,1307.048,724.932,1326.633,735.181C1338.841,741.57,1351.815,752.337,1351.724,759.596C1351.649,765.581,1341.386,771.779,1334.259,775.758C1326.242,780.233,1317.766,781.915,1305.254,783.838C1283.475,787.186,1244.355,789.503,1214.07,786.878C1183.373,784.216,1139.237,774.137,1122.317,767.677C1115.289,764.993,1111.817,763.49,1108.306,759.596C1104.634,755.522,1099.197,748.356,1101.097,743.434C1104.391,734.905,1130.64,726.518,1149.749,722.038" stroke="#71717a" stroke-width="2" fill="none" stroke-linecap="round" stroke-miterlimit="4"></path><path d="M1596,243.067C1596,243.067,1520.069,228.328,1495.477,217.606C1479.537,210.656,1469.491,203.398,1458.895,193.939C1448.512,184.672,1439.116,173.652,1432.347,161.616C1425.5,149.439,1420.473,134.881,1418.195,121.212C1415.982,107.933,1416.084,94.074,1418.464,80.808C1420.919,67.125,1425.931,52.894,1433.138,40.404C1440.669,27.352,1463.317,4.451,1463.317,4.451" stroke="#71717a" stroke-width="2" fill="none" stroke-linecap="round" stroke-miterlimit="4"></path><path d="M251.85,4C251.85,4,259.718,23.262,259.624,32.323C259.538,40.731,257.929,48.225,252.431,56.566C243.489,70.13,221.768,87.969,201.005,99.324C176.548,112.699,143.663,122.113,112.563,127.388C79.547,132.987,8.04,130.394,8.04,130.394" stroke="#71717a" stroke-width="2" fill="none" stroke-linecap="round" stroke-miterlimit="4"></path><path d="M1596,218.044C1596,218.044,1559.698,212.438,1543.719,206.961C1529.108,201.953,1515.22,195.432,1503.518,187.467C1492.699,180.104,1482.98,171.446,1475.417,161.616C1468.02,152.002,1461.817,141.046,1458.401,129.293C1454.803,116.911,1453.635,101.467,1455.119,88.889C1456.479,77.368,1460.413,66.575,1465.688,56.566C1471.096,46.302,1478.532,36.656,1487.437,28.188C1497.16,18.944,1522.524,4,1522.524,4" stroke="#71717a" stroke-width="2" fill="none" stroke-linecap="round" stroke-miterlimit="4"></path><path d="M202.942,4C202.942,4,210.495,17.546,211.397,24.242C212.224,30.382,212.352,35.949,209.045,42.534C203.289,53.997,186.059,71.342,168.844,81.36C147.764,93.627,115.526,101.333,88.442,105.005C61.913,108.602,8.04,103.678,8.04,103.678" stroke="#71717a" stroke-width="2" fill="none" stroke-linecap="round" stroke-miterlimit="4"></path><path d="M1596,187.571C1596,187.571,1542.693,169.895,1527.638,159.12C1518.218,152.377,1513.293,145.928,1508.461,137.374C1503.237,128.125,1498.849,115.901,1498.26,105.051C1497.68,94.35,1500.512,82.323,1504.724,72.727C1508.742,63.573,1514.506,55.775,1522.395,48.485C1531.938,39.666,1546.982,30.65,1559.799,25.5C1571.572,20.77,1596,17.668,1596,17.668" stroke="#71717a" stroke-width="2" fill="none" stroke-linecap="round" stroke-miterlimit="4"></path><path d="M6.286,16.162L30.412,4" stroke="#71717a" stroke-width="2" fill="none" stroke-linecap="round" stroke-miterlimit="4"></path><path d="M120.603,4.41C120.603,4.41,133.266,11.23,136.754,16.162C139.959,20.693,142.172,27.062,141.568,32.323C140.933,37.849,136.756,43.91,132.352,48.485C127.424,53.605,121.253,57.43,112.563,60.793C98.944,66.063,74.631,71.764,56.281,71.157C38.467,70.567,4,57.904,4,57.904" stroke="#71717a" stroke-width="2" fill="none" stroke-linecap="round" stroke-miterlimit="4"></path><path d="M1596,142.056C1596,142.056,1579.527,135.295,1573.683,129.293C1567.636,123.083,1561.442,113.299,1560.662,105.051C1559.912,97.124,1563.088,87.428,1568.274,80.808C1574.135,73.328,1596,63.963,1596,63.963" stroke="#71717a" stroke-width="2" fill="none" stroke-linecap="round" stroke-miterlimit="4"></path></svg>